<svg width="25" height="25" viewBox="0 0 25 25" fill="none" xmlns="http://www.w3.org/2000/svg">
<g clip-path="url(#clip0_21_635)">
<path d="M25 12.5C25 19.4038 19.4038 25 12.5 25C5.59623 25 0 19.4038 0 12.5C0 5.59623 5.59623 0 12.5 0C19.4038 0 25 5.59623 25 12.5ZM23.907 12.4881C23.907 6.19041 18.8011 1.08451 12.5034 1.08451C6.20573 1.08451 1.09984 6.19041 1.09984 12.4881C1.09984 18.7858 6.20573 23.8917 12.5034 23.8917C18.8011 23.8917 23.907 18.7858 23.907 12.4881Z" fill="#164930"/>
<path d="M15.4387 20.7573L11.4037 20.7829C10.9627 20.7863 10.4468 20.3147 10.4468 19.8465L10.4332 12.9188C9.98715 12.8456 9.58535 12.7997 9.23463 12.6652C8.82262 12.5068 8.6779 11.7015 8.70855 11.3117C8.73749 10.9473 9.06948 10.1727 9.55811 10.1641L13.6255 10.1012C13.8621 10.0978 14.4784 10.5064 14.4801 10.7362L14.5244 17.8783C15.0641 17.9056 15.5851 17.9413 15.8507 18.1133C16.232 18.3601 16.3291 18.8726 16.3444 19.3715C16.3597 19.8703 16.1129 20.7573 15.4387 20.7624V20.7573ZM14.9109 19.7579C15.0675 19.7579 15.2854 19.1467 15.1458 19.1178L14.6419 19.0139C14.2656 18.9356 13.857 18.8215 13.4825 18.6428L13.4671 11.1057L10.4315 11.1005C10.2681 11.1005 9.90032 11.4989 10.0212 11.5738C10.6392 11.962 11.4769 12.025 11.4786 12.5051L11.5177 19.763L14.9126 19.7579H14.9109Z" fill="#164930"/>
<path d="M14.7643 6.65181C14.7643 7.90318 13.7496 8.91789 12.4983 8.91789C11.2469 8.91789 10.2322 7.90318 10.2322 6.65181C10.2322 5.40045 11.2469 4.38574 12.4983 4.38574C13.7496 4.38574 14.7643 5.40045 14.7643 6.65181ZM13.6441 6.6416C13.6441 5.99634 13.1214 5.47366 12.4761 5.47366C11.8309 5.47366 11.3082 5.99634 11.3082 6.6416C11.3082 7.28686 11.8309 7.80954 12.4761 7.80954C13.1214 7.80954 13.6441 7.28686 13.6441 6.6416Z" fill="#164930"/>
</g>
<defs>
<clipPath id="clip0_21_635">
<rect width="25" height="25" fill="white"/>
</clipPath>
</defs>
</svg>
