<svg width="27" height="31" viewBox="0 0 27 31" fill="none" xmlns="http://www.w3.org/2000/svg">
<path d="M20.9998 31H6.00761C5.81773 31 5.6595 30.8687 5.65675 30.6886C5.65262 30.3115 5.64711 29.9581 5.665 29.5867C5.6939 28.9931 6.21813 28.5839 6.82629 28.623L6.83042 24.3983C6.83042 24.2447 6.96939 24.052 7.11799 24.0506L8.38936 24.038C8.29854 23.1288 8.96312 22.3733 9.86849 22.3914C10.1217 22.397 10.3721 22.3118 10.5688 22.154C11.6338 21.3007 12.1154 19.8217 12.0397 18.4754C11.5003 18.5089 10.9555 18.2855 10.7587 17.7827C10.562 17.2799 10.6555 16.6808 11.1467 16.3093C10.2001 15.8359 9.42131 15.22 8.75123 14.4505C8.49943 15.4616 7.47986 16.0105 6.55386 15.5901C6.16172 15.4113 5.88515 15.0622 5.79709 14.7158C5.67188 14.2284 5.78471 13.7969 6.09705 13.4296C3.59422 12.0986 1.74083 10.2216 0.770795 7.51363C0.231428 6.00671 -0.0231203 4.43136 0.00164658 2.82529C0.00852626 2.39095 0.374525 2.05996 0.770795 2.06136L4.8188 2.06555C4.55187 1.8002 4.43904 1.49714 4.44592 1.12704C4.45693 0.50696 4.91787 0 5.56318 0H21.4209C21.9891 0 22.406 0.379871 22.5133 0.92035C22.5959 1.34072 22.4844 1.71501 22.2106 2.06415L26.1843 2.05717C26.5737 2.05717 26.9865 2.31135 26.9989 2.77222C27.0636 5.44808 26.304 8.39906 24.5965 10.4981C23.5948 11.7299 22.362 12.6838 20.9393 13.4212C21.4965 14.051 21.3754 14.9784 20.6957 15.4532C20.2637 15.7563 19.7257 15.8066 19.2015 15.5859C18.7873 15.4113 18.4392 14.9993 18.2865 14.4658C17.5847 15.2381 16.8238 15.8568 15.8786 16.3065C16.3547 16.6766 16.4647 17.2576 16.2583 17.7813C16.0657 18.2729 15.5236 18.4894 15.0021 18.4908C14.9347 19.8846 15.4383 21.3733 16.5473 22.2043C16.7317 22.3426 16.9614 22.3956 17.1912 22.3928C18.076 22.3817 18.746 23.1051 18.6649 24.0352L19.8413 24.0464C19.9514 24.0464 20.1866 24.1567 20.188 24.309L20.1949 28.6216C20.8526 28.5853 21.3617 29.0448 21.3589 29.6956L21.3534 30.6886C21.3534 30.8701 21.1924 31 21.0026 31H20.9998ZM17.9796 13.7242C20.466 10.5917 21.2282 6.30977 21.0893 2.35464L20.0408 2.34766C19.8041 2.34626 19.6473 2.18845 19.6569 1.97058C19.6652 1.77646 19.8261 1.64797 20.0408 1.64657L21.5103 1.63261C21.7318 1.62981 21.8529 1.33653 21.8433 1.16336C21.8336 0.990179 21.7304 0.712258 21.4828 0.712258H5.57694C5.27974 0.712258 5.12288 0.974816 5.13802 1.20805C5.15315 1.44128 5.32102 1.64657 5.59483 1.64657H18.4736C18.7061 1.64657 18.8423 1.78065 18.8602 1.98036C18.8726 2.127 18.7447 2.35045 18.5259 2.35045H5.90854C5.7737 5.80281 6.40663 9.54007 8.18159 12.5134C9.03467 13.8988 10.2138 15.1795 11.7205 15.7996C14.1146 16.7842 16.4647 15.632 17.9783 13.7242H17.9796ZM7.18404 12.188C5.02106 11.1699 3.23785 9.49957 2.36551 7.26224C1.96373 6.23296 1.72294 5.18133 1.65002 4.07942C1.63488 3.85737 1.78348 3.66464 2.01051 3.66324L5.18755 3.65905V2.77641L0.690991 2.76943C0.637329 5.9285 1.67479 9.14624 4.10744 11.2285C4.94676 11.9827 5.87552 12.5427 6.87858 13.0539C7.03543 13.1335 7.14964 13.2871 7.14138 13.4435C7.12074 13.8723 6.58 13.7075 6.4658 14.1502C6.41901 14.3318 6.44103 14.5552 6.54973 14.7074C6.83317 15.1083 7.38492 15.1557 7.76193 14.8192C8.06876 14.5454 8.27378 13.97 8.03712 13.5846L7.18266 12.188H7.18404ZM19.5014 14.9546C19.9816 15.1669 20.4646 14.9141 20.5719 14.4658C20.6572 14.1083 20.4604 13.8346 20.1247 13.7633C19.994 13.7354 19.8674 13.5622 19.866 13.4463C19.8633 13.2983 19.9541 13.1544 20.0958 13.0846C21.026 12.6237 21.8845 12.1182 22.6798 11.4478C25.279 9.3641 26.3467 6.08352 26.3261 2.7792H21.8034L21.7937 3.66185H24.9845C25.2143 3.66464 25.3725 3.83782 25.3547 4.07384C25.1331 7.03041 23.8852 9.60711 21.4195 11.2676C20.8952 11.621 20.3683 11.8989 19.8138 12.2034L18.9909 13.6125C18.724 14.0692 19.0391 14.7493 19.5014 14.9546ZM5.76957 8.31666C5.46962 6.98851 5.29212 5.71762 5.21507 4.37271L2.37239 4.36852C2.48246 5.49556 2.77416 6.55557 3.25986 7.57787C4.01938 9.09875 5.20406 10.297 6.68044 11.1336C6.29793 10.1825 6.00211 9.30824 5.76957 8.31666ZM23.5549 7.94378C24.1631 6.80696 24.5057 5.63522 24.6295 4.36852L21.7745 4.3741C21.6795 6.72735 21.2365 8.92139 20.3531 11.1029C21.7057 10.3585 22.7913 9.30684 23.5549 7.94378ZM15.2264 17.7492C15.4121 17.7492 15.5896 17.5928 15.6295 17.4838C15.6763 17.3582 15.6736 17.171 15.6048 17.0411C15.4988 16.8414 15.2195 16.7367 14.987 16.773C13.9729 16.9294 12.9919 16.9112 11.9778 16.7758C11.6792 16.7367 11.4027 16.9182 11.3573 17.1738C11.3229 17.3651 11.4178 17.7408 11.7067 17.7408L15.2278 17.7506L15.2264 17.7492ZM14.7943 21.1066C14.4311 20.2547 14.2619 19.4125 14.2976 18.4726H12.7469C12.791 19.9223 12.3796 21.2895 11.3806 22.3901L15.6543 22.3928C15.3007 21.9669 15.0255 21.5926 14.7943 21.1066ZM17.9452 24.0436C18.0044 23.7922 17.9452 23.5492 17.7994 23.3663C17.6632 23.1931 17.4416 23.0856 17.183 23.0856L9.76529 23.0925C9.27959 23.0925 8.99752 23.6414 9.11172 24.045H17.9452V24.0436ZM17.2614 25.4807C17.5008 25.4807 17.6054 25.7111 17.6068 25.8717V28.623L19.5083 28.6216L19.5124 24.7461H7.52252V28.6244L9.4158 28.6202V25.8703C9.42681 25.6371 9.58229 25.4793 9.82583 25.4793H17.2628L17.2614 25.4807ZM10.1079 26.1776V28.6244H16.9092V26.1776H10.1079ZM6.34884 29.3339V30.2989H20.6517V29.3339H6.34884Z" fill="#164930"/>
<path d="M18.4501 11.1015C18.3455 11.3095 18.1171 11.3514 17.9451 11.2593C17.813 11.188 17.7387 10.9688 17.8254 10.7942C18.8739 8.66162 19.2426 6.39636 19.3238 4.02216C19.3321 3.79592 19.4999 3.67302 19.6926 3.68279C19.8852 3.69257 20.0214 3.85457 20.0132 4.07663C19.9251 6.48434 19.5495 8.91719 18.4487 11.1015H18.4501Z" fill="#164930"/>
<path d="M17.0095 13.322C16.887 13.4826 16.6518 13.498 16.5293 13.4114C16.3628 13.2941 16.3188 13.0637 16.4467 12.8933L17.0136 12.1433C17.1292 11.9911 17.3576 11.9743 17.4842 12.0567C17.6411 12.1601 17.7057 12.4031 17.5901 12.5553L17.0081 13.322H17.0095Z" fill="#164930"/>
</svg>
