<svg width="53" height="69" viewBox="0 0 53 69" fill="none" xmlns="http://www.w3.org/2000/svg">
<path d="M40.8877 68.7378C31.2091 69.0854 21.7293 69.1014 12.2893 68.7258C9.43701 68.6139 7.71848 65.0654 6.99446 63.0434C2.69416 62.2202 0.331175 59.2911 0.136249 55.1352C-0.022874 51.7305 -0.0905014 48.3978 0.203877 44.9412C0.494277 41.5366 2.95273 39.3468 6.51709 38.9751L6.44151 19.3824C6.44151 18.831 5.12874 16.745 5.82093 12.1136C6.34206 8.64101 8.82836 6.04357 12.516 5.95166L19.1515 5.78783C19.8198 4.47312 20.3966 3.02655 21.3633 2.05151C22.867 0.521017 25.2976 -0.154317 27.3185 0.0295014C30.672 0.333202 32.9952 2.6709 33.6238 5.8118L41.0588 5.95966C43.3541 6.00761 45.2994 7.18645 46.3178 9.31235C47.9568 12.741 47.8812 16.8929 46.1388 20.5173L46.1468 38.8992C49.4247 39.099 52.7066 41.0651 52.8697 44.3578C53.0726 48.5577 53.005 52.5298 52.9334 56.7936C52.9135 58.0483 51.911 59.8266 51.0478 60.7537C49.8265 62.0644 48.0244 62.424 46.2502 63.0474C45.5023 65.0135 43.923 68.6219 40.8917 68.7298L40.8877 68.7378ZM31.8097 5.8158C30.9465 2.88669 28.6989 1.78377 26.141 1.87968C23.7342 1.96759 21.7532 3.35422 21.2599 5.86775L31.8137 5.8198L31.8097 5.8158ZM34.0534 19.6542L39.4477 19.7101L39.6983 24.7731C44.4959 22.855 46.2979 16.3374 45.5222 12.3334C45.1602 10.4632 43.8037 7.86977 41.5004 7.87777L11.2192 7.99765C8.55785 8.00964 7.50764 11.9977 7.42808 13.9798C7.24906 18.5872 9.17048 22.7991 13.2878 24.7691L13.4748 19.7021L19.1594 19.6582L19.3225 25.5643H33.8425L34.0574 19.6502L34.0534 19.6542ZM17.6199 30.6553L17.6319 21.7121C17.0829 21.3125 16.0725 21.2406 15.3524 21.4044L15.3604 31.0389C15.8696 31.2627 17.4369 31.1668 17.6199 30.6513V30.6553ZM37.936 30.8711L37.9121 21.3565L35.6327 21.3485V31.0909C36.4721 31.1668 37.4825 31.1388 37.932 30.8711H37.936ZM32.7486 31.5345C34.6024 31.0949 34.1051 28.1018 33.6635 27.2187H19.3186L19.2509 30.8311L20.2574 31.8581L20.2375 37.6125L18.9725 38.5076L18.9088 48.8014C17.0113 48.8973 15.6508 48.8973 13.7413 48.8014L13.7055 38.7114L12.4285 37.3447L12.3967 32.1578L13.3992 30.8112L13.3355 26.7072C11.4221 25.7921 10.2008 24.841 8.49818 23.3066L8.48625 55.0952C10.169 53.9324 11.7403 52.5338 13.7612 52.5338L39.2329 52.5178C41.1901 52.5178 42.845 53.6606 44.4799 54.6956V23.4744C42.9444 24.9889 41.6078 25.9639 39.7659 26.7951L39.4516 29.2327C39.3243 30.2038 40.2075 31.1229 40.3467 31.8342C40.7008 33.6404 40.5377 35.5185 40.5655 37.3847L39.5909 38.4157L39.5392 48.8054H34.0415L34.0017 38.6994L32.677 37.065L32.7605 31.5305L32.7486 31.5345ZM18.6264 36.4057L18.5866 32.8132H14.3778V36.4017H18.6264V36.4057ZM38.8788 36.3537L38.8907 32.8092H34.67V36.4176L38.8788 36.3537ZM17.3176 46.9153L17.2937 38.112L15.3365 38.2319L15.3564 47.183C16.0605 47.2789 17.0033 47.243 17.3176 46.9193V46.9153ZM37.8684 46.7954L37.9479 38.116L35.6327 38.124L35.6526 46.9672C35.7918 47.4548 37.8644 47.3429 37.8684 46.7954ZM6.9149 45.4447L6.73191 40.8133C3.61309 40.2579 1.70759 44.0381 2.08153 45.5646C2.1412 45.8124 6.03177 45.9882 6.91888 45.4447H6.9149ZM51.0159 45.6046C51.4257 42.2359 48.5813 40.6655 46.107 40.6535L46.1667 45.5566L51.0159 45.6046ZM51.1154 54.34L50.9682 47.255L46.2741 47.3469C46.8588 53.0133 45.9837 55.7426 46.1468 61.1093C50.5783 60.2621 51.1989 58.2521 51.1154 54.336V54.34ZM6.8433 61.3291L6.81147 47.6706L1.89456 47.6466L2.02982 55.335C2.08153 58.34 3.83189 60.7217 6.8433 61.3291ZM40.5814 63.3671L40.6172 67.1234C44.0344 66.0964 44.5436 63.2392 44.5555 60.398C44.5675 58.0723 44.0583 55.9224 41.6475 54.9554C40.9951 54.6916 39.6784 54.1721 38.8708 54.1761L13.9442 54.3C10.0735 54.32 7.9492 57.9724 8.47829 61.2971C8.91986 64.0664 10.1928 66.3441 12.9616 67.1873C12.6473 64.9295 12.532 62.7837 13.5344 60.8735C14.0794 59.8306 15.4917 58.7596 16.6692 58.7636L37.1961 58.8196C39.4079 58.8276 40.5655 61.5449 40.5814 63.3631V63.3671ZM38.8947 67.2992L38.851 62.6997C38.843 61.9685 37.7252 60.414 36.9415 60.414L17.2937 60.406C16.1202 60.406 14.708 61.8845 14.708 62.9715L14.7159 67.2992H38.8907H38.8947Z" fill="#164930"/>
</svg>
