<svg width="61" height="69" viewBox="0 0 61 69" fill="none" xmlns="http://www.w3.org/2000/svg">
<path d="M60.9377 61.9894C60.4749 65.5899 56.6498 70.1737 52.7495 68.7145L30.7839 60.4826L9.20977 68.5519C5.15128 70.0706 0.190899 66.4424 0.00498326 61.5889C-0.10973 58.607 1.76525 55.6727 4.68056 54.6377L10.4004 52.6075L7.81738 51.2871C5.8356 50.2759 5.03656 48.6343 4.9891 46.4573C4.91394 43.0353 6.2905 39.4427 9.7952 38.1659C10.6852 37.8408 12.7145 37.8566 13.6282 38.2095L30.4239 44.7047L47.5716 38.2492C50.1626 37.2737 52.9078 38.6695 54.3674 40.7711C55.4948 42.3969 55.8626 44.213 55.9022 46.148C55.9734 49.5463 53.8611 51.41 50.3762 52.3497L55.9694 54.4712C59.1063 55.6608 61.4243 58.1391 60.9298 61.9854L60.9377 61.9894ZM35.6453 57.917C35.3328 57.7981 34.9254 57.0605 35.0362 56.775C35.1469 56.4895 35.8827 56.2595 36.1754 56.3745L47.2828 60.6491L48.3311 58.0241L31.1517 51.2752C30.8392 51.1522 30.3527 50.7557 30.147 50.5495C29.9413 50.3433 30.5149 49.3401 30.8946 49.4868L49.2607 56.6759C50.3801 56.315 51.2583 55.7559 52.0217 54.8756L12.6314 39.645C11.3893 39.1652 9.70027 39.7401 8.97639 40.557L21.3852 45.5057C21.7729 45.6603 22.1289 45.8268 22.2792 46.0251C22.4295 46.2234 22.2278 46.8895 21.9984 46.9807C21.7689 47.0719 21.1163 47.0878 20.8829 46.9966L7.89649 41.8219C6.24699 43.9076 5.96614 48.7175 8.78651 49.8397L30.4951 58.488L47.5162 65.0744L46.9268 62.2431L35.6453 57.917ZM52.9157 49.463C54.7827 47.4526 54.7709 44.1694 52.8999 42.1153L39.866 47.0719C39.5061 47.2107 38.5844 46.5406 38.7268 46.3265C38.8375 46.1639 39.2015 45.6722 39.5377 45.5453L52.1206 40.7394C50.6649 39.0502 48.6001 39.5617 46.9545 40.2001L32.9397 45.6246L42.7062 49.4432L48.4221 47.0957C48.9126 47.1394 49.6642 47.2702 49.7037 47.5954C49.7433 47.9205 49.2963 48.4796 48.968 48.6065L45.1072 50.0856C46.7884 52.8097 52.3935 50.034 52.9236 49.463H52.9157ZM11.8917 56.9931L16.6859 54.9232C15.1076 54.2452 13.6717 53.6742 12.4771 53.3688L9.13066 55.0105L11.8917 56.9971V56.9931ZM14.0238 60.8593L22.6985 57.5126C18.5016 54.61 17.6748 56.7155 12.8094 58.2422L14.0198 60.8593H14.0238ZM53.1135 67.283C56.0367 67.4932 58.149 65.5343 59.0667 63.0957C59.6996 61.4144 59.5691 59.634 58.4536 58.1113C57.7614 57.1636 56.1672 55.7837 54.672 56.0533C52.1958 56.4974 49.9687 58.0637 49.229 60.3319C48.7108 61.918 48.6555 63.6429 49.5138 65.003C50.1428 65.9983 51.551 67.168 53.1135 67.283ZM6.6386 67.2275C8.46215 67.4734 10.2303 66.3433 11.0215 65.2964C12.1725 63.7698 12.6433 62.1837 11.9985 60.3676C10.9977 57.5601 7.88463 55.4665 4.87438 56.4776C2.857 57.1557 1.53186 59.5745 1.69404 61.5809C1.91952 64.3408 3.73911 66.8349 6.64256 67.2275H6.6386ZM13.3039 65.2052L28.3551 59.6102L25.1866 58.2223L13.9803 62.5049L13.3039 65.2052Z" fill="#164930"/>
<path d="M35.6809 20.7424C34.7316 20.215 34.5615 18.3196 34.6683 17.1578C35.1667 11.5866 33.0188 6.19775 28.276 3.18016C28.2878 8.61657 25.8788 12.106 22.655 16.1863C20.6139 18.6805 18.5767 21.2579 17.5522 24.3746C16.1954 28.5025 17.7342 32.7612 20.5625 35.8581C20.8314 36.1515 20.9738 36.782 20.8552 37.0675C19.9256 39.304 14.8228 32.4083 15.2658 26.7538C15.4913 23.8909 16.5079 21.3729 18.1535 19.1722L24.1344 11.1702C27.4571 6.72513 25.511 4.27458 26.5632 0C31.3574 2.09764 36.0607 7.81955 36.2308 12.9268L36.4206 18.6012C40.1192 17.3481 38.7545 13.1608 40.1073 12.9784C40.3921 12.9387 41.025 13.2956 41.2149 13.5454C45.9814 19.882 47.7536 27.3208 43.0463 34.3553C42.4253 35.2831 39.4151 39.0224 38.7228 37.0199C38.6318 36.7622 38.8731 36.1872 39.1342 35.9691C45.5463 30.5645 45.1982 22.5784 40.8747 16.226C39.8067 18.5615 38.4261 20.2944 35.6849 20.7504L35.6809 20.7424Z" fill="#164930"/>
<path d="M34.2609 36.7146C36.7411 30.7071 30.2103 29.3629 28.9326 23.7124C25.42 27.7808 22.9121 32.4519 25.9105 37.5631C23.7982 40.4974 21.7769 33.2806 23.7428 28.6333C24.5972 26.611 29.2886 19.2276 30.5742 20.4331C31.5315 21.3332 29.5774 23.5577 32.6549 27.0036L34.3439 28.891C38.3075 33.3242 36.1517 38.7924 34.7237 38.0984C34.2925 37.8883 34.067 37.1745 34.2609 36.7106V36.7146Z" fill="#164930"/>
<path d="M28.5687 53.2419C28.8337 53.345 29.1897 54.1103 29.0276 54.3165C28.8377 54.5663 28.1652 54.8241 27.8527 54.7051L13.0072 48.9713C12.7184 48.8603 12.1805 48.2219 12.2912 47.9403C12.402 47.6588 13.2841 47.3217 13.5887 47.4407L28.5727 53.2419H28.5687Z" fill="#164930"/>
<path d="M53.6396 62.4454C52.9592 62.2709 52.3263 62.0726 52.3065 62.3264C52.2867 62.5802 52.3777 63.3693 52.5518 63.5596C52.9513 63.9958 54.2527 64.202 54.755 63.8927C55.2891 63.5636 55.9338 62.8974 56.2621 62.2114C56.6617 61.3589 56.4085 60.2843 55.8428 59.6974C54.7867 58.603 53.7859 59.7529 52.1245 59.8243C51.8595 59.8362 52.0177 58.9321 52.2076 58.7457C52.9592 57.9884 54.3753 57.6949 55.5739 57.9686C56.5074 58.1827 57.6268 59.2771 57.7969 60.4707C58.0185 62.033 57.6387 63.2265 56.6261 64.2258C55.6134 65.225 54.5691 65.6097 53.1253 65.3955C52.176 65.2528 51.017 64.3447 50.6728 63.0521C50.4869 62.3462 50.9695 61.1329 51.5035 60.9029C52.979 60.2684 54.7669 60.6412 54.9014 61.7039C54.9489 62.0766 54.0233 62.5485 53.6435 62.4493L53.6396 62.4454Z" fill="#164930"/>
<path d="M7.51675 64.0395C8.04681 64.0474 8.82607 63.5398 8.95265 63.175C9.0911 62.7626 8.83794 61.7079 8.46611 61.8387C7.75409 62.0885 6.87198 62.378 6.50806 62.4533C6.0057 60.8514 7.58795 60.0821 8.79047 60.205C10.2264 60.3517 10.9898 61.8744 10.4677 63.3535C9.94552 64.8325 8.60455 65.4511 7.19239 65.4709C5.69716 65.4947 4.42344 64.6898 3.66791 63.2424C2.77789 61.5374 2.95194 59.6657 4.48673 58.4801C5.74858 57.5047 8.20108 57.2112 9.22955 58.9203C9.26119 60.4231 5.42422 57.7743 4.80318 60.5976C4.46299 62.148 5.5864 64.0157 7.5128 64.0395H7.51675Z" fill="#164930"/>
</svg>
