<svg width="58" height="59" viewBox="0 0 58 59" fill="none" xmlns="http://www.w3.org/2000/svg">
<path d="M9.60504 58.4567C7.88741 59.4646 5.88935 58.8425 4.74426 57.2835L9.62062 46.0829L4.53005 34.6736L1.27784 33.335C0.826038 32.9374 0.210651 32.2956 0.0626467 31.8429C-0.665691 29.5831 5.16101 28.5162 6.94486 28.028C23.8524 23.3981 34.6217 18.2329 47.4085 6.18185L51.9109 1.93781C53.2858 0.642555 55.7006 -0.762937 57.3326 0.485077C57.687 0.756726 58.1155 1.7449 57.9713 2.17009L56.1447 7.58734L47.5176 37.9688C46.7425 40.705 45.9168 43.1577 45.3793 45.9608L49.7259 57.0079C49.4845 58.1024 48.1836 59.0039 47.2917 59C45.944 59 44.9547 58.4685 44.2498 57.2756L37.2897 46.9529H17.7375L9.60115 58.4606L9.60504 58.4567ZM17.6791 36.709C20.8651 37.7326 23.7784 38.6223 26.8826 39.2404C32.9625 40.4491 38.5789 38.2483 42.0726 33.0594C43.354 31.1539 44.2147 29.0044 45.2274 26.8745L52.3121 12.0046C52.7561 11.0715 57.0755 2.03624 55.7785 1.82364C54.7542 1.65435 52.6821 3.41811 51.872 4.22124C34.8865 20.9887 25.1767 24.8272 2.16587 31.1736C2.63715 32.0516 3.198 32.4807 3.87181 32.6618C8.53006 33.898 12.9351 35.1854 17.6752 36.7129L17.6791 36.709ZM6.8358 35.2641L11.198 45.3309L43.5877 45.323L46.5867 35.0791C48.1213 29.8351 49.5779 24.7721 50.8516 19.4376L44.2887 32.7366C41.1806 39.0357 34.4542 42.1971 27.5603 41.0947C20.2769 39.9294 13.9205 37.0751 6.8358 35.2641ZM8.61185 56.7992L15.5057 47.0907L11.1357 46.9687L7.05391 56.3504C6.94875 56.5945 7.23307 57.437 7.46677 57.3386C7.63814 57.2677 8.42879 57.0551 8.61185 56.7992ZM47.4903 55.8662L43.9616 46.9411L39.5409 47.0671C41.6558 50.3859 44.0083 53.9016 46.2751 57.0591C46.4621 57.3189 47.5448 57.2992 47.5838 57.0118C47.6149 56.7835 47.6071 56.1614 47.4903 55.8622V55.8662Z" fill="#164930"/>
</svg>
