<svg width="59" height="65" viewBox="0 0 59 65" fill="none" xmlns="http://www.w3.org/2000/svg">
<path d="M46.291 61.6526C37.6517 65.4573 21.6311 65.1332 12.7973 61.5992L12.6867 36.823C11.3371 39.6746 11.0931 42.5986 11.0245 45.618L10.7919 56.1171L10.5555 60.852C10.5288 61.4086 10.4754 62.7963 9.99886 63.0708C7.16991 63.8828 4.45534 64.4394 1.44338 64.9998C1.12694 65.057 0.55886 64.3136 0.535985 63.94L0.326292 60.4708L0.0708475 44.9623C0.0212837 42.023 -0.20366 39.2895 0.535985 36.3693C2.27072 29.5376 4.22277 22.9347 6.37689 16.2326C7.12797 13.8919 8.85889 12.0925 11.074 11.2195L17.1932 8.81007L17.4296 5.04731C17.4601 4.55171 17.0712 3.36608 17.3305 2.95816C17.5898 2.55024 18.3218 2.00508 18.9165 1.78778C25.7716 -0.724536 34.7045 -0.629228 41.5596 2.32913L41.6473 8.61945L48.6281 11.4901C50.6336 12.3136 51.8879 13.686 52.5208 15.8209L57.3171 31.9775C58.3198 35.359 59.0404 38.6605 58.9946 42.1412L58.7697 58.9039C58.7506 60.2496 58.5562 61.6373 58.5676 63.0555C58.5714 63.5625 58.2435 64.9998 57.6259 64.8969C54.5758 64.3898 52.0214 63.6998 49.0818 62.7734C48.5328 60.7033 48.4833 58.8658 48.5176 56.7499C48.5519 54.6341 48.4146 52.8004 48.2964 50.8065C48.0029 45.8963 48.4947 40.9898 46.3978 36.2816L46.291 61.6526ZM39.0013 3.20215C36.0046 1.37224 23.0875 1.29218 20.0336 3.28983C29.6528 6.32825 29.5232 5.93939 39.0013 3.20215ZM9.17534 54.2796L9.38885 44.2455C9.40791 43.4259 9.52229 42.2479 9.69385 41.4549L10.9368 35.7822L12.7325 27.5133C12.8011 27.2045 13.2663 26.6708 13.5598 26.625C13.8534 26.5793 14.3338 27.2541 14.3338 27.6277V60.4708C19.0271 61.8508 23.5374 62.6895 28.753 62.7582V7.14408C25.2493 6.49599 22.3326 5.72209 19.0767 4.75758L19.0462 9.12649L24.5439 11.4863C24.8947 11.635 25.3293 12.2945 25.2073 12.6071C25.0586 12.9807 24.3495 13.2057 23.9606 13.0379L17.8185 10.3731L12.7897 12.2145C10.4411 13.0722 8.43188 14.3646 7.74943 17.0675C5.94225 24.2385 2.90742 31.1884 2.07628 38.6834C1.17269 46.8608 2.1754 54.8857 1.74458 63.1203C4.62691 62.7353 6.53321 62.3274 8.9199 61.6488L9.17534 54.2719V54.2796ZM56.9205 63.086L57.1531 55.6406C57.3247 50.1889 57.4467 44.7678 57.1722 39.2514C56.993 35.7136 55.651 32.3321 54.6825 28.9887L51.1521 16.7931C50.7861 15.5274 49.8024 13.747 48.5443 13.2362L41.266 10.2778L35.2002 13.0646C34.9333 13.1866 34.2013 13.0722 34.0068 12.8549C33.8124 12.6376 33.9077 11.837 34.1708 11.7151L40.0269 9.02737L39.9735 4.67752L30.3277 7.0869V62.6209C34.3271 62.8916 40.7513 62.0529 44.7469 60.5851L44.7698 27.0482C44.7698 26.7546 45.6124 26.3238 45.8182 26.503C46.0241 26.6822 46.2719 27.2045 46.3177 27.5438C47.206 34.0133 49.5699 38.6796 49.7376 43.8758L49.9473 50.3224L50.1151 61.1913C52.2654 62.1406 54.6063 62.7848 56.9244 63.0898L56.9205 63.086Z" fill="#164930"/>
<path d="M18.0665 53.1701C17.9903 53.4255 17.5328 53.8487 17.3345 53.9898C17.0867 54.1689 16.1602 53.5819 16.2784 53.193L19.3666 43.0103C19.5077 42.549 20.0872 42.061 20.396 42.1906C20.7049 42.3203 21.0899 43.2238 20.9412 43.7118L18.0665 53.1701Z" fill="#164930"/>
<path d="M35.0479 33.6396C35.0479 34.2839 34.5713 34.8748 34.2587 34.8558C33.946 34.8367 33.458 34.2763 33.458 33.8112L33.4809 21.5584C33.4809 21.2343 33.9422 20.7082 34.0757 20.5558C34.2396 20.3689 35.0174 20.8264 35.0174 21.1085L35.0479 33.6396Z" fill="#164930"/>
<path d="M42.5473 52.9033C42.6197 53.1435 42.2957 53.8716 42.0669 53.9288C41.7771 54.0013 41.0909 53.6238 40.9879 53.3074L39.6878 49.2663C39.3943 48.3514 37.0915 42.0344 38.6927 42.2707C38.9787 42.3127 39.5277 42.732 39.6116 43.0218L42.5511 52.9033H42.5473Z" fill="#164930"/>
</svg>
