<svg width="83" height="56" viewBox="0 0 83 56" fill="none" xmlns="http://www.w3.org/2000/svg">
<path d="M15.5825 26.584L33.0558 26.5088L37.2387 20.5672L30.6332 19.8104C25.084 19.1749 6.89818 19.5679 2.76142 25.2962C0.158648 20.1867 16.492 18 19.3252 18.2007C20.3186 17.1721 18.4535 11.9622 23.3195 11.5149C25.0002 11.3601 27.2635 11.2096 28.9484 11.5692C31.7858 12.1755 32.7373 15.2612 32.4271 18.1003C34.376 18.4557 36.3669 18.669 38.3661 18.74L49.7453 2.48756C50.9021 0.835967 52.9852 -0.681823 54.9928 0.321675C57.5201 1.58441 57.3902 4.54891 55.8478 6.49736L44.9548 20.262L48.2575 22.1477C49.2173 22.6955 49.6951 24.2509 48.9993 25.0788C47.3689 23.6446 45.7679 22.6328 43.6387 21.947C42.4316 23.5108 41.7065 24.5394 40.6629 26.4377L49.9046 26.6049C50.2148 26.6091 50.856 26.9645 51.0824 27.1276C51.3087 27.2907 50.986 28.3234 50.7303 28.4363C49.41 28.8503 46.8911 28.3151 45.2565 28.3234L21.27 28.428L1.14359 28.5869C0.79991 28.5869 0.116736 28.0433 0.0119542 27.7297C-0.0928271 27.4161 0.514904 26.6593 0.908882 26.6886C3.53261 26.8893 6.52935 26.9854 9.22433 26.722C11.3409 26.513 13.3569 26.5924 15.5825 26.584ZM38.3451 26.2454L40.3192 23.3269L54.8251 4.84159C55.5754 3.88409 55.1856 2.65899 54.3893 2.0778C53.8067 1.65131 52.411 1.78511 51.8619 2.57118L40.8683 18.3763L35.5202 26.2997C36.1992 26.5631 37.9302 26.7806 38.341 26.2495L38.3451 26.2454ZM30.1512 17.9205C30.6919 16.2689 30.5452 13.9023 28.7933 13.4006C27.1377 12.9239 24.7529 12.9616 23.0806 13.3922C21.2868 13.8522 20.9598 16.6034 21.8777 17.8829L30.1512 17.9247V17.9205Z" fill="#164930"/>
<path d="M3.16349 30.8153C3.1593 30.2968 3.70416 29.5358 4.03527 29.5777C4.36638 29.6195 4.89867 30.2759 4.89867 30.623L4.94478 47.9208C4.95316 50.3417 7.41762 53.9167 10.1294 53.9167L42.0793 53.9083C45.0132 53.9083 47.2932 50.1452 47.2974 47.5821L47.3267 29.77C47.6453 29.6906 48.559 29.5317 48.6679 29.7742L49.3176 31.2293C51.015 31.3672 53.1023 31.731 54.8165 31.2125L57.1552 30.5017L76.4643 27.7672C77.8013 27.579 79.3437 27.4118 80.622 27.7254C82.2189 28.1184 82.9356 29.8244 82.9985 31.2502C83.053 32.4585 82.1938 34.6955 80.534 34.9129L57.3354 37.982C54.2423 38.3917 57.1887 35.306 49.0829 37.8398C48.8943 41.8705 49.3134 45.2364 48.8356 49.2462C48.5296 51.826 45.3317 55.6017 42.4523 55.6017L10.0874 55.631C6.81407 55.631 3.33114 52.01 3.306 48.9075L3.1593 30.8069L3.16349 30.8153ZM78.8198 33.345C80.3496 33.1443 81.2549 32.5756 81.1543 31.1414C81.0998 30.3637 80.1694 29.0717 79.0336 29.2306L57.4989 32.1784C57.2432 33.6293 57.2349 34.8418 57.6246 36.0962L78.824 33.3408L78.8198 33.345ZM55.156 34.9589C55.2901 34.4781 55.1476 33.2404 54.7662 33.161C52.9472 33.0188 49.6277 32.6467 48.9907 34.637C48.8943 34.9422 49.3679 35.7032 49.7199 35.6614L55.156 34.9589Z" fill="#164930"/>
</svg>
