<svg width="40" height="68" viewBox="0 0 40 68" fill="none" xmlns="http://www.w3.org/2000/svg">
<path d="M36.3202 67.9992H3.94781C3.15048 65.9915 3.69643 63.4263 5.59746 62.2802C8.20547 60.7092 5.88811 60.6117 7.37672 56.265C2.7852 56.0389 -0.518019 52.4289 0.0672124 47.7235L3.59039 19.3041C4.09314 15.242 7.53383 12.86 11.2573 12.5443L11.6226 10.3573C11.7051 9.85437 12.7616 9.72182 13.4922 9.35147C13.7161 8.74332 13.5158 7.51532 13.3429 6.36919L16.3594 5.95596C15.5385 3.97556 16.0531 2.11212 17.3806 1.01667C18.8693 -0.21133 20.9627 -0.38286 22.3767 0.810054C23.8653 2.06924 24.4977 3.78454 23.559 6.00274L26.8347 6.27173L26.5008 9.41385L28.394 10.0415L29.0971 12.6378C32.7184 13.0862 36.0845 15.4993 36.5244 19.3314L39.9651 49.1854C40.4364 53.2632 36.0649 56.2533 32.7656 56.2338C33.8143 59.3915 32.8245 61.4109 34.0578 62.0892C36.2652 63.3016 37.1686 65.5042 36.3241 67.9914L36.3202 67.9992ZM21.2927 5.94426C22.5063 5.29323 22.5613 3.90539 22.1293 3.01656C21.7993 2.33823 20.7821 1.55465 19.8041 1.65601C18.826 1.75737 18.068 2.62282 17.7852 3.3869C17.526 4.08472 17.7106 5.38289 18.4333 5.87799C19.0067 6.27173 20.6799 6.27563 21.2927 5.94816V5.94426ZM24.914 9.33198C24.9494 8.66535 24.8708 7.75313 24.6077 7.74923L15.3814 7.73753L15.3147 9.33588L24.9101 9.32808L24.914 9.33198ZM27.9659 17.0002L27.0546 11.5658C26.7365 11.3786 25.5346 10.9264 25.0044 10.9303L13.3351 10.9732L12.2471 17.008L27.962 17.0002H27.9659ZM10.7349 47.7196C8.03265 43.9109 7.5731 39.5486 8.02479 35.2525C8.50791 30.6524 9.17955 26.0601 11.599 22.0486C12.2078 21.035 13.2408 19.9123 12.9345 18.7622L10.0986 18.3997L10.9195 14.3103C7.99337 14.4701 5.54247 16.6766 5.1929 19.6004L1.74043 48.6903C1.31623 52.2613 5.15362 55.2631 8.51576 54.5341C10.2243 54.1637 11.3948 52.3354 13.61 52.3627L13.5707 49.4349C11.8583 49.9261 10.7663 49.9145 9.6823 48.8385L10.731 47.7235L10.7349 47.7196ZM29.9022 48.9827C29.372 49.7351 27.4671 49.739 26.3123 49.4349L26.2927 52.1521C28.4019 52.694 29.6627 53.54 31.5008 54.5692C32.8323 55.3138 35.2597 54.0585 36.4184 53.1384C38.4333 51.5401 38.5433 49.1894 38.2526 46.8269L35.0554 20.883C34.6469 17.5615 32.8206 14.513 29.1913 14.4194L29.9494 18.5205L27.5613 18.6375C26.2809 19.924 27.9227 20.6374 28.4883 21.5574C31.599 26.6136 32.3571 34.812 32.0114 40.7688C31.7286 45.7081 28.881 46.9088 29.9062 48.9866L29.9022 48.9827ZM25.5071 20.8635C25.7742 20.2592 25.2989 18.6648 24.6587 18.6609L15.0201 18.6297C14.6391 19.2651 14.4506 20.1579 14.6116 20.8635H25.5071ZM29.9101 31.1904C29.2699 28.0911 28.6022 25.218 27.2628 22.4813L13.0837 22.4891C11.7522 25.3701 10.7585 28.2393 10.4364 31.1553C14.0931 32.8511 17.09 34.66 20.1536 36.9132C23.0916 34.4534 26.2809 32.6913 29.914 31.1904H29.9101ZM12.2471 46.901C13.9478 43.5016 15.9117 40.683 18.7554 37.9814C15.7899 35.8568 13.3076 34.3013 10.1026 32.9914C9.44663 37.3226 9.21882 43.1936 12.2471 46.8971V46.901ZM29.8944 32.8823C26.7483 34.3442 24.0185 35.9464 21.4616 38.0048C24.3327 40.9052 26.1552 43.4821 27.797 46.9634C30.7703 43.8524 30.951 36.6326 29.8905 32.8784L29.8944 32.8823ZM26.3241 47.7742C24.6234 44.1643 22.6517 41.7044 20.1026 38.9872C17.3806 41.6732 15.2361 44.4333 13.72 47.8054L26.3241 47.7742ZM24.2856 52.0664L24.2699 49.587C21.2534 49.7702 18.6532 49.7702 15.6367 49.587L15.6289 51.9221L24.2856 52.0664ZM31.7444 61.9021C31.7561 59.8827 31.5598 58.643 31.1748 57.0252C29.7883 55.5438 28.1033 54.0117 25.8803 53.9571C21.7836 53.8557 17.8441 53.8285 13.6925 54C11.9761 54.0702 10.0594 55.7348 9.14027 57.0797C8.22118 58.4247 8.42542 60.4441 8.63359 61.9099L31.7444 61.9021ZM34.7098 66.393C34.7923 65.3249 34.4702 64.6076 33.885 63.824L6.34373 63.8513C5.53461 64.1398 5.23218 66.011 5.88418 66.3891H34.7098V66.393Z" fill="#164930"/>
</svg>
