<svg width="43" height="42" viewBox="0 0 43 42" fill="none" xmlns="http://www.w3.org/2000/svg">
<path d="M42.6556 37.4782C42.6579 39.5989 40.872 41.0962 38.8393 41.0951L3.99644 41.0769C1.74337 41.0757 0.341946 39.1256 0.344241 37.0436L0.372935 13.3468C0.375231 11.4104 1.8834 9.66848 3.85527 9.6571L6.68108 9.64004L6.68911 5.14029C6.6937 2.36535 9.00646 0.339035 11.7439 0.341311L31.4981 0.362928C34.1346 0.365203 36.3062 2.46092 36.3153 5.07316L36.3326 9.6389L39.047 9.65369C40.9282 9.66393 42.6327 11.2147 42.635 13.1807L42.6568 37.4793L42.6556 37.4782ZM31.4144 3.52242C32.4152 3.52242 33.0568 4.378 33.1567 5.25178L33.1636 9.64231H35.513L35.5085 4.99579C35.3902 3.07871 33.843 1.18551 31.7816 1.18551L11.2756 1.1821C9.2142 1.1821 7.51436 3.09463 7.50862 5.04699L7.49599 9.64573L9.84662 9.64004L9.85581 5.26089C9.94189 4.22099 10.7534 3.50991 11.8001 3.51105L31.4109 3.52356L31.4144 3.52242ZM32.3624 9.64118L32.3475 5.30526C32.3452 4.78304 31.9446 4.39279 31.4396 4.34046H11.6222C11.1298 4.36207 10.6833 4.73411 10.6811 5.24951L10.6581 9.64004H32.3624V9.64118ZM3.91725 40.2907H39.14C40.6803 40.2907 41.8786 38.8344 41.8694 37.4236L41.8614 36.1049C40.8995 36.0082 40.2464 35.2937 40.2464 34.3392V16.5188C40.2464 15.6211 40.9936 14.9612 41.8384 14.9066C41.8464 14.2786 41.8682 13.8076 41.8384 13.1215C41.7856 11.936 40.6987 10.4603 39.3156 10.4603L3.75082 10.4569C2.35054 10.4569 1.20392 11.903 1.189 13.1272L1.16834 14.9078C2.16346 14.9499 2.79014 15.719 2.79014 16.6951L2.79473 34.4006C2.79473 35.2573 2.18641 35.9161 1.36116 36.0469C1.27279 36.0606 1.1626 36.2062 1.16375 36.2813L1.17064 37.4304C1.17867 38.8344 2.35972 40.2918 3.92069 40.2918L3.91725 40.2907ZM2.25987 34.3119L2.25643 16.5791C2.25643 15.9579 1.78699 15.4778 1.1649 15.4562V35.5008C1.81798 35.5156 2.25987 34.9854 2.25987 34.3107V34.3119ZM41.8694 35.511L41.851 15.4402C41.1807 15.496 40.771 16.008 40.7721 16.6371L40.7848 34.3972C40.7848 34.9957 41.2611 35.5372 41.8694 35.5099V35.511Z" fill="#164930"/>
<path d="M11.7371 0.341321C11.7371 0.341321 11.7405 0.341321 11.7428 0.341321L31.4971 0.362938C34.1335 0.365214 36.3051 2.46093 36.3143 5.07317L36.3315 9.63891L39.046 9.6537C40.9272 9.66394 42.6316 11.2147 42.6339 13.1807L42.6557 37.4793C42.658 39.5989 40.8732 41.0962 38.8417 41.0962H38.8394L3.99654 41.078C1.74346 41.0769 0.342038 39.1268 0.344333 37.0447L0.373028 13.3479C0.375323 11.4115 1.88349 9.66963 3.85536 9.65825L6.68117 9.64119L6.6892 5.14143C6.69379 2.36877 9.00311 0.342459 11.7382 0.342459M7.49838 9.64574L9.84901 9.64005L9.8582 5.2609C9.94428 4.22101 10.7558 3.51106 11.8014 3.51106H11.8025L31.4133 3.52357C32.4142 3.52357 33.0558 4.37915 33.1556 5.25293L33.1625 9.64346H35.512L35.5074 4.99694C35.3892 3.07985 33.842 1.18666 31.7806 1.18666L11.2745 1.18325C9.21315 1.18325 7.5133 3.09578 7.50871 5.04814L7.49609 9.64687M32.3625 9.64119L32.3476 5.30527C32.3453 4.78305 31.9447 4.3928 31.4397 4.34047H11.6223C11.1299 4.36209 10.6834 4.73412 10.6811 5.24952L10.6582 9.64005H32.3625M3.91734 40.2907H39.1401C40.6804 40.2907 41.8787 38.8344 41.8695 37.4236L41.8615 36.105C40.8996 36.0082 40.2465 35.2938 40.2465 34.3392V16.5188C40.2465 15.6211 40.9937 14.9612 41.8385 14.9066C41.8465 14.2786 41.8683 13.8076 41.8385 13.1215C41.7857 11.936 40.6988 10.4604 39.3157 10.4604L3.75091 10.4569C2.35063 10.4569 1.20401 11.903 1.18909 13.1272L1.16843 14.9078C2.16355 14.9499 2.79023 15.719 2.79023 16.6952L2.79482 34.4006C2.79482 35.2573 2.1865 35.9161 1.36126 36.0469C1.27288 36.0606 1.16269 36.2062 1.16384 36.2813L1.17073 37.4304C1.17876 38.8344 2.35982 40.2918 3.92078 40.2918M41.8259 35.5122C41.8408 35.5122 41.8557 35.5122 41.8706 35.5122L41.8523 15.4414C41.182 15.4971 40.7722 16.0091 40.7734 16.6383L40.786 34.3984C40.786 34.982 41.2394 35.5122 41.8259 35.5122ZM1.19254 35.502C1.82955 35.502 2.25996 34.9763 2.25881 34.3119L2.25537 16.5791C2.25537 15.9579 1.78593 15.4778 1.16384 15.4562V35.5008C1.17417 35.5008 1.18335 35.5008 1.19139 35.5008M11.7371 0C8.71846 0 6.34946 2.25727 6.34372 5.13916L6.33684 9.29986L3.85306 9.31466C2.81663 9.32148 1.84676 9.75951 1.12023 10.5491C0.428121 11.3046 0.0298446 12.3228 0.0286969 13.3457L2.61674e-06 37.0436C-0.00114515 38.1779 0.375323 39.2497 1.06054 40.0609C1.79971 40.9358 2.84188 41.4182 3.99654 41.4193L38.8394 41.4375C39.9344 41.4375 40.9662 41.045 41.7444 40.3339C42.5547 39.5933 43.0012 38.5795 43 37.4793L42.9782 13.1807C42.9782 12.1499 42.5536 11.176 41.7846 10.4387C41.0442 9.72879 40.0468 9.31807 39.0483 9.31238L36.6758 9.29986L36.6609 5.07317C36.6506 2.2914 34.3355 0.026168 31.4994 0.0227547L11.744 0H11.7371ZM7.84386 9.30328L7.85534 5.04814C7.85993 3.20387 9.49091 1.52343 11.2768 1.52343L31.7829 1.52684C32.6495 1.52684 33.4793 1.90912 34.1209 2.60314C34.7281 3.26076 35.1091 4.13681 35.1654 5.00718L35.17 9.30214H33.508L33.5011 5.2518V5.23245L33.4988 5.21311C33.4391 4.68975 33.2176 4.19939 32.8767 3.82962C32.4853 3.40639 31.9803 3.18225 31.4145 3.18111L11.8037 3.1686C10.556 3.1686 9.61602 4.01735 9.51616 5.23245V5.24611L9.51501 5.25976L9.50583 9.29873L7.84386 9.30328ZM11.0037 9.29986L11.0255 5.2518C11.0278 4.91503 11.3331 4.69772 11.6315 4.68065H31.4202C31.7634 4.72389 32.0021 4.97874 32.0033 5.30641L32.017 9.29986H11.0037ZM1.51391 14.6063L1.53113 13.1318C1.54375 12.0748 2.53543 10.7983 3.74862 10.7983L39.3134 10.8017C40.4623 10.8017 41.4448 12.0794 41.493 13.1363C41.516 13.6563 41.5091 14.0454 41.5011 14.4948C41.5011 14.5323 41.4999 14.571 41.4988 14.6097C40.5805 14.8088 39.9011 15.595 39.9011 16.5177V34.3381C39.9011 35.3586 40.553 36.1653 41.5194 36.3917L41.5263 37.4247C41.5309 38.0744 41.2359 38.757 40.7401 39.2531C40.2902 39.7013 39.7232 39.9482 39.1412 39.9494H3.91734C2.78679 39.9494 1.5208 38.914 1.51162 37.427L1.50588 36.3655C2.47115 36.1709 3.13686 35.3745 3.13571 34.3995L3.13112 16.694C3.13112 15.6098 2.48033 14.7929 1.51276 14.6051L1.51391 14.6063ZM1.51047 35.0867V15.8896C1.75494 16.0182 1.91104 16.2719 1.91219 16.5791L1.91563 34.3119C1.91563 34.5565 1.84102 34.7772 1.70559 34.9331C1.64935 34.9979 1.58392 35.0491 1.51162 35.0867H1.51047ZM41.5252 35.0924C41.2933 34.9649 41.1303 34.6987 41.1292 34.3984L41.1166 16.6383C41.1166 16.3026 41.2623 16.0375 41.5079 15.8942L41.5252 35.0935V35.0924Z" fill="#164930"/>
<path d="M19.9482 34.7088C19.7829 34.9443 19.4099 35.0228 19.2079 34.9512C19.0059 34.8795 18.751 34.5757 18.8107 34.314L20.3832 27.4091L16.1617 27.4296C15.9689 27.4296 15.6831 27.2976 15.5958 27.1736C15.4925 27.0279 15.4684 26.6411 15.5947 26.4614L21.0707 18.644L23.0931 15.7348C23.2629 15.4913 23.5992 15.3912 23.8586 15.5027C24.126 15.6187 24.2695 15.9259 24.1984 16.2513L22.7017 23.0129L26.9025 23.0197C27.0609 23.0197 27.3111 23.154 27.4006 23.2564C27.5028 23.3735 27.5751 23.7649 27.4706 23.914L22.3952 31.2194L19.9493 34.7077L19.9482 34.7088Z" fill="#164930"/>
</svg>
