<svg width="93" height="47" viewBox="0 0 93 47" fill="none" xmlns="http://www.w3.org/2000/svg">
<path d="M92.834 30.7259C92.585 35.6438 88.2862 39.0793 83.8813 39.644L57.8766 42.9618L28.8691 46.7032C21.4293 47.6632 14.1417 46.3879 8.4823 41.5453C-1.73418 32.806 -2.97953 17.5205 6.15304 7.60475C13.2331 -0.0803442 21.7199 -0.77685 31.5443 0.522039L78.8538 6.77176C81.0493 7.06354 82.8067 7.22355 84.956 7.62828C88.9135 8.37184 92.6957 11.6379 92.8525 16.0569C93.0278 20.9748 93.0785 25.8315 92.834 30.7212V30.7259ZM24.7503 2.58802C24.9624 3.58572 24.9624 4.36223 24.7272 4.87049C22.3887 9.88721 22.6286 17.3135 22.8961 22.9843C27.8683 13.445 31.7288 8.76245 41.1151 3.8775L25.8296 2.09388C13.293 0.63028 2.37086 10.1225 2.02493 23.1302C1.71129 34.8908 12.4075 46.0349 24.3536 44.5289L22.0566 39.8605C14.091 39.451 7.61517 33.2484 6.68346 25.1115C5.62722 15.8875 12.4444 8.21654 21.3463 7.39768L24.7503 2.59273V2.58802ZM57.3093 40.9005C60.2566 28.0717 60.3442 18.2029 57.3093 6.0329L47.4295 4.67754C46.1611 4.50341 44.5329 4.24928 43.6842 5.07285C46.0919 18.4853 46.4378 28.8952 43.4997 42.6606L57.3093 40.9005ZM73.033 8.1083L59.4633 6.4188C62.406 19.2006 61.9124 28.4246 59.5555 40.5946L73.4296 38.7545C76.0679 29.1729 76.5061 17.337 73.033 8.10359V8.1083ZM22.8546 30.1565C22.5086 35.4414 24.0953 40.0675 25.6727 44.8584L41.1843 43.0371C44.2838 30.9612 44.2884 18.7488 41.8808 6.56469C39.5146 8.30125 40.8522 17.657 41.2904 19.9583C41.6317 21.7607 41.1151 23.3561 39.8605 24.4009C37.665 26.2269 35.3357 24.3773 29.0029 25.1492C26.4522 25.4598 23.0667 26.9987 22.8592 30.1518L22.8546 30.1565ZM38.5598 23.0502C39.3531 22.0902 39.5146 20.9748 39.2332 19.8124C38.2369 15.6616 38.1078 11.6802 38.5368 7.42591C32.2823 11.6332 27.7253 17.3088 24.9117 24.1515C27.2733 23.3185 29.2381 22.9373 31.4567 22.9655L38.5552 23.0502H38.5598ZM90.966 30.6035C91.1228 25.888 91.0905 21.6196 90.9983 17.3041C90.8922 12.3015 86.9163 9.61426 82.4699 9.24247L75.496 8.65892C78.2127 18.0194 78.0697 29.1682 75.5098 38.5051L84.6793 37.3192C87.6774 36.9333 90.8507 33.9731 90.9614 30.6082L90.966 30.6035ZM20.862 37.6204L20.8482 9.40248C18.1637 9.85427 15.6638 10.7767 13.5698 12.5415C9.16033 16.2593 7.57366 22.3537 9.42785 28.0858C10.9822 32.8907 15.3271 36.9286 20.862 37.6157V37.6204Z" fill="#164930"/>
</svg>
