<svg width="85" height="62" viewBox="0 0 85 62" fill="none" xmlns="http://www.w3.org/2000/svg">
<path d="M12.3516 61.6165C12.2806 58.8769 12.3871 56.892 12.2007 54.7252L11.7035 48.9439L2.05236 61.9806C1.11122 61.3501 0.693925 60.5065 0.565184 59.5029L0.0546606 55.5466C0.00138854 55.1115 -0.0252475 54.3389 0.0324639 53.9748C0.103493 53.5485 1.21777 53.211 1.65282 53.3309L2.71382 57.6025L8.60039 49.832L40.2839 6.42353C42.8277 2.93789 40.4171 0.602287 42.4681 0.0117262C42.9209 -0.117043 43.6445 0.846504 43.6756 1.34382L43.8798 4.9005L72.6201 44.3571L82.5109 57.5714L83.2478 54.3877C83.3189 54.0769 83.7673 53.6417 84.0247 53.5441C85.8182 52.8425 84.8993 62.6778 83.2523 61.9673L73.3437 48.7974L73.2061 61.6387L12.3516 61.621V61.6165ZM14.1762 59.8182L28.0802 59.7516L41.4781 29.0646L41.3938 8.19077L21.5366 35.432L14.0785 45.9112L14.1718 59.8182H14.1762ZM70.9908 59.8182L71.0752 45.6003L43.8088 8.22629L43.6845 28.856L56.9714 59.7516L70.9908 59.8182ZM41.5181 59.7116L41.4604 34.1355L30.291 59.6672C34.1665 59.8626 37.5848 59.8449 41.5225 59.7116H41.5181ZM54.805 59.6228L43.7688 34.1133L43.6978 59.8004C47.5201 59.8182 51.0982 59.8626 54.805 59.6228Z" fill="#164930"/>
</svg>
