<svg width="238" height="35" viewBox="0 0 238 35" fill="none" xmlns="http://www.w3.org/2000/svg">
<path d="M6.3112 14.7489C6.3112 16.2124 6.64277 17.4815 7.3059 18.5562C7.96904 19.6081 8.83797 20.4084 9.9127 20.9572C11.0103 21.506 12.2108 21.7804 13.5142 21.7804C14.6575 21.7804 15.6637 21.6318 16.5326 21.3345C17.4015 21.0372 18.179 20.6485 18.865 20.1683C19.551 19.6881 20.157 19.1736 20.6829 18.6248V24.8674C19.7225 25.622 18.6706 26.2165 17.5273 26.651C16.384 27.0855 14.9319 27.3027 13.1712 27.3027C11.2504 27.3027 9.47823 27.0054 7.8547 26.4109C6.23117 25.8164 4.8363 24.9589 3.6701 23.8384C2.5039 22.7179 1.60067 21.3917 0.960401 19.8596C0.320135 18.3275 1.30697e-06 16.624 1.30697e-06 14.7489C1.30697e-06 12.8738 0.320135 11.1703 0.960401 9.63821C1.60067 8.10614 2.5039 6.77987 3.6701 5.65941C4.8363 4.53894 6.23117 3.68144 7.8547 3.0869C9.47823 2.49237 11.2504 2.19511 13.1712 2.19511C14.9319 2.19511 16.384 2.41234 17.5273 2.84681C18.6706 3.28127 19.7225 3.87581 20.6829 4.63041V10.873C20.157 10.3242 19.551 9.80971 18.865 9.32951C18.179 8.82644 17.4015 8.43771 16.5326 8.1633C15.6637 7.86604 14.6575 7.71741 13.5142 7.71741C12.2108 7.71741 11.0103 7.99181 9.9127 8.54061C8.83797 9.08941 7.96904 9.88974 7.3059 10.9416C6.64277 11.9935 6.3112 13.2626 6.3112 14.7489ZM28.9208 21.8147C28.9208 22.2263 29.0237 22.5807 29.2295 22.878C29.4353 23.1524 29.7097 23.3696 30.0527 23.5297C30.3957 23.6669 30.773 23.7355 31.1846 23.7355C31.7791 23.7355 32.3279 23.6097 32.831 23.3582C33.3341 23.1067 33.7457 22.7294 34.0658 22.2263C34.3859 21.7232 34.546 21.1058 34.546 20.3741L35.0948 22.4321C35.0948 23.4382 34.8204 24.2957 34.2716 25.0046C33.7228 25.6906 33.0139 26.2165 32.145 26.5824C31.2761 26.9254 30.3385 27.0969 29.3324 27.0969C28.3263 27.0969 27.3887 26.914 26.5198 26.5481C25.6737 26.1594 24.9877 25.5877 24.4618 24.8331C23.9587 24.0785 23.7072 23.1638 23.7072 22.0891C23.7072 20.5799 24.2446 19.3908 25.3193 18.5219C26.394 17.6301 27.9147 17.1842 29.8812 17.1842C30.8416 17.1842 31.6991 17.2757 32.4537 17.4586C33.2312 17.6415 33.8943 17.8702 34.4431 18.1446C34.9919 18.419 35.4035 18.7048 35.6779 19.0021V21.3002C35.1291 20.8886 34.4888 20.5799 33.7571 20.3741C33.0482 20.1454 32.2936 20.0311 31.4933 20.0311C30.8759 20.0311 30.3843 20.0997 30.0184 20.2369C29.6525 20.3741 29.3781 20.5799 29.1952 20.8543C29.0123 21.1058 28.9208 21.426 28.9208 21.8147ZM26.6227 15.8122L24.8734 12.3479C25.7652 11.9134 26.8399 11.5018 28.0976 11.1131C29.3553 10.7244 30.7273 10.53 32.2136 10.53C33.6085 10.53 34.8547 10.7358 35.9523 11.1474C37.0499 11.5361 37.9188 12.1078 38.5591 12.8624C39.1994 13.617 39.5195 14.5431 39.5195 15.6407V26.7539H34.546V16.8069C34.546 16.4182 34.4774 16.0866 34.3402 15.8122C34.2259 15.5149 34.0429 15.2634 33.7914 15.0576C33.5399 14.8518 33.2197 14.7032 32.831 14.6117C32.4651 14.5202 32.0421 14.4745 31.5619 14.4745C30.853 14.4745 30.1556 14.5545 29.4696 14.7146C28.8065 14.8747 28.2234 15.069 27.7203 15.2977C27.2172 15.5035 26.8514 15.675 26.6227 15.8122ZM67.4761 16.6011V26.7539H62.2625V17.1499C62.2625 16.1895 62.1025 15.4692 61.7823 14.989C61.4851 14.4859 60.982 14.2344 60.2731 14.2344C59.8158 14.2344 59.4042 14.3487 59.0383 14.5774C58.6953 14.7832 58.4209 15.1033 58.2151 15.5378C58.0322 15.9723 57.9407 16.5096 57.9407 17.1499V26.7539H52.7271V17.1499C52.7271 16.1895 52.5671 15.4692 52.2469 14.989C51.9497 14.4859 51.4466 14.2344 50.7377 14.2344C50.2804 14.2344 49.8688 14.3487 49.5029 14.5774C49.1599 14.7832 48.8855 15.1033 48.6797 15.5378C48.4968 15.9723 48.4053 16.5096 48.4053 17.1499V26.7539H43.3975V10.9759H48.4053V13.3083C48.8398 12.4622 49.4343 11.7991 50.1889 11.3189C50.9664 10.8387 51.8925 10.5986 52.9672 10.5986C54.202 10.5986 55.1853 10.8273 55.917 11.2846C56.6488 11.7191 57.1747 12.3593 57.4948 13.2054C58.0665 12.3822 58.7754 11.7419 59.6214 11.2846C60.4675 10.8273 61.4279 10.5986 62.5026 10.5986C63.7374 10.5986 64.7093 10.8387 65.4181 11.3189C66.1499 11.7762 66.6758 12.4508 66.9959 13.3426C67.3161 14.2344 67.4761 15.3206 67.4761 16.6011ZM76.6793 34.2999H71.5V10.9759H76.6793V34.2999ZM89.5761 18.8649C89.5761 20.6942 89.2102 22.2377 88.4785 23.4954C87.7696 24.7531 86.8435 25.702 85.7002 26.3423C84.5797 26.9826 83.3678 27.3027 82.0644 27.3027C80.6924 27.3027 79.5033 26.9597 78.4972 26.2737C77.5139 25.5648 76.7593 24.5816 76.2334 23.3239C75.7074 22.0434 75.4445 20.557 75.4445 18.8649C75.4445 17.1499 75.7074 15.6636 76.2334 14.4059C76.7593 13.1482 77.5139 12.1764 78.4972 11.4904C79.5033 10.7815 80.6924 10.4271 82.0644 10.4271C83.3678 10.4271 84.5797 10.7472 85.7002 11.3875C86.8435 12.0278 87.7696 12.9767 88.4785 14.2344C89.2102 15.4692 89.5761 17.0127 89.5761 18.8649ZM84.1224 18.8649C84.1224 18.0417 83.9509 17.3443 83.6079 16.7726C83.2649 16.2009 82.8075 15.7665 82.2359 15.4692C81.6642 15.1719 81.0354 15.0233 80.3494 15.0233C79.7548 15.0233 79.1717 15.1719 78.6001 15.4692C78.0513 15.7436 77.5939 16.1666 77.2281 16.7383C76.8622 17.31 76.6793 18.0188 76.6793 18.8649C76.6793 19.711 76.8622 20.4198 77.2281 20.9915C77.5939 21.5632 78.0513 21.9976 78.6001 22.2949C79.1717 22.5693 79.7548 22.7065 80.3494 22.7065C81.0354 22.7065 81.6642 22.5579 82.2359 22.2606C82.8075 21.9633 83.2649 21.5289 83.6079 20.9572C83.9509 20.3855 84.1224 19.6881 84.1224 18.8649ZM93.2183 2.74391H99.2208V26.7539H93.2183V2.74391ZM107.384 2.74391H114.176L104.434 13.9943L114.69 26.7539H107.659L97.5401 14.1658L107.384 2.74391ZM116.378 5.04201C116.378 4.21881 116.676 3.55567 117.27 3.05261C117.865 2.52667 118.573 2.26371 119.397 2.26371C120.243 2.26371 120.952 2.52667 121.523 3.05261C122.118 3.55567 122.415 4.21881 122.415 5.04201C122.415 5.86521 122.118 6.53977 121.523 7.06571C120.952 7.59164 120.243 7.85461 119.397 7.85461C118.573 7.85461 117.865 7.59164 117.27 7.06571C116.676 6.53977 116.378 5.86521 116.378 5.04201ZM116.893 10.9759H121.901V26.7539H116.893V10.9759ZM124.314 10.9759H134.879V15.2634H124.314V10.9759ZM127.092 5.48791H132.066V26.7539H127.092V5.48791ZM159.443 17.6301V14.2001H171.002C171.048 15.9608 170.819 17.6301 170.316 19.2079C169.813 20.7628 169.058 22.1463 168.052 23.3582C167.046 24.5701 165.789 25.5305 164.279 26.2394C162.793 26.9254 161.101 27.2684 159.203 27.2684C157.396 27.2684 155.727 26.9711 154.195 26.3766C152.663 25.7592 151.325 24.8903 150.182 23.7698C149.062 22.6493 148.193 21.3231 147.575 19.791C146.958 18.2589 146.649 16.5782 146.649 14.7489C146.649 12.9196 146.958 11.2503 147.575 9.74111C148.215 8.20904 149.096 6.89421 150.216 5.79661C151.36 4.67614 152.697 3.81864 154.229 3.22411C155.784 2.62957 157.465 2.33231 159.272 2.33231C160.849 2.33231 162.278 2.54954 163.559 2.98401C164.84 3.39561 165.983 4.00157 166.989 4.80191C168.018 5.57937 168.887 6.52834 169.596 7.64881L166.303 9.84401C165.64 8.70067 164.714 7.78601 163.525 7.10001C162.359 6.41401 160.941 6.07101 159.272 6.07101C157.717 6.07101 156.31 6.43687 155.053 7.16861C153.795 7.87747 152.789 8.88361 152.034 10.187C151.28 11.4675 150.902 12.9882 150.902 14.7489C150.902 16.4868 151.268 18.0188 152 19.3451C152.755 20.6485 153.761 21.6661 155.018 22.3978C156.276 23.1295 157.694 23.4954 159.272 23.4954C160.346 23.4954 161.307 23.3468 162.153 23.0495C162.999 22.7522 163.731 22.3292 164.348 21.7804C164.965 21.2316 165.48 20.6028 165.891 19.8939C166.303 19.185 166.612 18.4304 166.818 17.6301H159.443ZM178.652 20.5799C178.652 21.7004 178.892 22.5693 179.372 23.1867C179.852 23.8041 180.584 24.1128 181.567 24.1128C182.276 24.1128 182.893 23.9756 183.419 23.7012C183.945 23.4039 184.357 22.9923 184.654 22.4664C184.951 21.9176 185.1 21.2888 185.1 20.5799V10.9759H188.804V26.7539H185.1V24.3186C184.597 25.2333 183.945 25.9307 183.145 26.4109C182.367 26.8682 181.43 27.0969 180.332 27.0969C178.572 27.0969 177.211 26.5481 176.251 25.4505C175.313 24.3529 174.844 22.8666 174.844 20.9915V10.9759H178.652V20.5799ZM193.398 4.69901C193.398 4.05874 193.627 3.52137 194.084 3.0869C194.564 2.65244 195.113 2.43521 195.73 2.43521C196.393 2.43521 196.942 2.65244 197.377 3.0869C197.834 3.52137 198.063 4.05874 198.063 4.69901C198.063 5.31641 197.834 5.85377 197.377 6.31111C196.942 6.74557 196.393 6.96281 195.73 6.96281C195.113 6.96281 194.564 6.74557 194.084 6.31111C193.627 5.85377 193.398 5.31641 193.398 4.69901ZM193.912 10.9759H197.548V26.7539H193.912V10.9759ZM214.514 -9.4218e-05H218.253V26.7539H214.514V-9.4218e-05ZM201.446 18.8649C201.446 17.127 201.8 15.6521 202.509 14.4402C203.218 13.2054 204.155 12.2679 205.321 11.6276C206.51 10.9645 207.78 10.6329 209.129 10.6329C210.455 10.6329 211.61 10.9645 212.593 11.6276C213.599 12.2907 214.388 13.2397 214.96 14.4745C215.554 15.6864 215.852 17.1499 215.852 18.8649C215.852 20.557 215.554 22.0205 214.96 23.2553C214.388 24.4901 213.599 25.4391 212.593 26.1022C211.61 26.7653 210.455 27.0969 209.129 27.0969C207.78 27.0969 206.51 26.7768 205.321 26.1365C204.155 25.4734 203.218 24.5244 202.509 23.2896C201.8 22.0548 201.446 20.5799 201.446 18.8649ZM205.287 18.8649C205.287 19.9168 205.504 20.82 205.939 21.5746C206.373 22.3292 206.945 22.9009 207.654 23.2896C208.386 23.6783 209.174 23.8727 210.021 23.8727C210.729 23.8727 211.427 23.6783 212.113 23.2896C212.822 22.9009 213.393 22.3406 213.828 21.6089C214.285 20.8543 214.514 19.9396 214.514 18.8649C214.514 17.7902 214.285 16.8869 213.828 16.1552C213.393 15.4006 212.822 14.8289 212.113 14.4402C211.427 14.0515 210.729 13.8571 210.021 13.8571C209.174 13.8571 208.386 14.0515 207.654 14.4402C206.945 14.8289 206.373 15.4006 205.939 16.1552C205.504 16.9098 205.287 17.813 205.287 18.8649ZM229.704 27.0969C228.103 27.0969 226.686 26.7539 225.451 26.0679C224.239 25.3819 223.301 24.4215 222.638 23.1867C221.975 21.9519 221.644 20.5113 221.644 18.8649C221.644 17.1956 221.975 15.7436 222.638 14.5088C223.324 13.274 224.285 12.325 225.52 11.6619C226.754 10.9759 228.206 10.6329 229.876 10.6329C231.545 10.6329 232.963 10.953 234.129 11.5933C235.295 12.2336 236.187 13.1597 236.804 14.3716C237.445 15.5607 237.765 17.0013 237.765 18.6934C237.765 18.8763 237.753 19.0707 237.73 19.2765C237.73 19.4823 237.719 19.6309 237.696 19.7224H223.839V17.1842H234.54L233.409 18.762C233.477 18.6248 233.546 18.4419 233.614 18.2132C233.706 17.9617 233.752 17.7559 233.752 17.5958C233.752 16.7497 233.58 16.018 233.237 15.4006C232.917 14.7832 232.46 14.303 231.865 13.96C231.293 13.617 230.619 13.4455 229.841 13.4455C228.904 13.4455 228.103 13.6513 227.44 14.0629C226.777 14.4745 226.274 15.069 225.931 15.8465C225.588 16.624 225.405 17.5844 225.382 18.7277C225.382 19.871 225.554 20.8429 225.897 21.6432C226.24 22.4207 226.743 23.0152 227.406 23.4268C228.092 23.8384 228.915 24.0442 229.876 24.0442C230.882 24.0442 231.762 23.8384 232.517 23.4268C233.271 23.0152 233.9 22.3864 234.403 21.5403L237.593 22.8437C236.77 24.2614 235.707 25.3247 234.403 26.0336C233.1 26.7425 231.533 27.0969 229.704 27.0969Z" fill="white"/>
</svg>
