<svg width="136" height="20" viewBox="0 0 136 20" fill="none" xmlns="http://www.w3.org/2000/svg">
<path d="M3.6064 8.428C3.6064 9.26427 3.79587 9.98947 4.1748 10.6036C4.55374 11.2047 5.05027 11.662 5.6644 11.9756C6.2916 12.2892 6.9776 12.446 7.7224 12.446C8.37574 12.446 8.95067 12.3611 9.4472 12.1912C9.94374 12.0213 10.388 11.7992 10.78 11.5248C11.172 11.2504 11.5183 10.9564 11.8188 10.6428V14.21C11.27 14.6412 10.6689 14.9809 10.0156 15.2292C9.36227 15.4775 8.53254 15.6016 7.5264 15.6016C6.4288 15.6016 5.41614 15.4317 4.4884 15.092C3.56067 14.7523 2.7636 14.2623 2.0972 13.622C1.4308 12.9817 0.91467 12.2239 0.548803 11.3484C0.182936 10.4729 2.95446e-06 9.49947 2.95446e-06 8.428C2.95446e-06 7.35653 0.182936 6.38307 0.548803 5.5076C0.91467 4.63213 1.4308 3.87427 2.0972 3.234C2.7636 2.59373 3.56067 2.10373 4.4884 1.764C5.41614 1.42427 6.4288 1.2544 7.5264 1.2544C8.53254 1.2544 9.36227 1.37853 10.0156 1.6268C10.6689 1.87507 11.27 2.2148 11.8188 2.646V6.2132C11.5183 5.8996 11.172 5.6056 10.78 5.3312C10.388 5.04373 9.94374 4.8216 9.4472 4.6648C8.95067 4.49493 8.37574 4.41 7.7224 4.41C6.9776 4.41 6.2916 4.5668 5.6644 4.8804C5.05027 5.194 4.55374 5.65133 4.1748 6.2524C3.79587 6.85347 3.6064 7.57867 3.6064 8.428ZM16.5262 12.4656C16.5262 12.7008 16.585 12.9033 16.7026 13.0732C16.8202 13.23 16.977 13.3541 17.173 13.4456C17.369 13.524 17.5846 13.5632 17.8198 13.5632C18.1595 13.5632 18.4731 13.4913 18.7606 13.3476C19.048 13.2039 19.2832 12.9883 19.4662 12.7008C19.6491 12.4133 19.7406 12.0605 19.7406 11.6424L20.0542 12.8184C20.0542 13.3933 19.8974 13.8833 19.5838 14.2884C19.2702 14.6804 18.8651 14.9809 18.3686 15.19C17.872 15.386 17.3363 15.484 16.7614 15.484C16.1864 15.484 15.6507 15.3795 15.1542 15.1704C14.6707 14.9483 14.2787 14.6216 13.9782 14.1904C13.6907 13.7592 13.547 13.2365 13.547 12.6224C13.547 11.76 13.854 11.0805 14.4682 10.584C15.0823 10.0744 15.9512 9.8196 17.075 9.8196C17.6238 9.8196 18.1138 9.87187 18.545 9.9764C18.9892 10.0809 19.3682 10.2116 19.6818 10.3684C19.9954 10.5252 20.2306 10.6885 20.3874 10.8584V12.1716C20.0738 11.9364 19.7079 11.76 19.2898 11.6424C18.8847 11.5117 18.4535 11.4464 17.9962 11.4464C17.6434 11.4464 17.3624 11.4856 17.1534 11.564C16.9443 11.6424 16.7875 11.76 16.683 11.9168C16.5784 12.0605 16.5262 12.2435 16.5262 12.4656ZM15.213 9.0356L14.2134 7.056C14.723 6.80773 15.3371 6.57253 16.0558 6.3504C16.7744 6.12827 17.5584 6.0172 18.4078 6.0172C19.2048 6.0172 19.917 6.1348 20.5442 6.37C21.1714 6.59213 21.6679 6.9188 22.0338 7.35C22.3996 7.7812 22.5826 8.3104 22.5826 8.9376V15.288H19.7406V9.604C19.7406 9.38187 19.7014 9.1924 19.623 9.0356C19.5576 8.86573 19.4531 8.722 19.3094 8.6044C19.1656 8.4868 18.9827 8.40187 18.7606 8.3496C18.5515 8.29733 18.3098 8.2712 18.0354 8.2712C17.6303 8.2712 17.2318 8.31693 16.8398 8.4084C16.4608 8.49987 16.1276 8.61093 15.8402 8.7416C15.5527 8.8592 15.3436 8.9572 15.213 9.0356ZM38.5578 9.4864V15.288H35.5786V9.8C35.5786 9.2512 35.4871 8.8396 35.3042 8.5652C35.1343 8.27773 34.8469 8.134 34.4418 8.134C34.1805 8.134 33.9453 8.19933 33.7362 8.33C33.5402 8.4476 33.3834 8.63053 33.2658 8.8788C33.1613 9.12707 33.109 9.43413 33.109 9.8V15.288H30.1298V9.8C30.1298 9.2512 30.0383 8.8396 29.8554 8.5652C29.6855 8.27773 29.3981 8.134 28.993 8.134C28.7317 8.134 28.4965 8.19933 28.2874 8.33C28.0914 8.4476 27.9346 8.63053 27.817 8.8788C27.7125 9.12707 27.6602 9.43413 27.6602 9.8V15.288H24.7986V6.272H27.6602V7.6048C27.9085 7.12133 28.2482 6.7424 28.6794 6.468C29.1237 6.1936 29.6529 6.0564 30.267 6.0564C30.9726 6.0564 31.5345 6.18707 31.9526 6.4484C32.3707 6.69667 32.6713 7.06253 32.8542 7.546C33.1809 7.0756 33.5859 6.70973 34.0694 6.4484C34.5529 6.18707 35.1017 6.0564 35.7158 6.0564C36.4214 6.0564 36.9767 6.1936 37.3818 6.468C37.7999 6.72933 38.1005 7.1148 38.2834 7.6244C38.4663 8.134 38.5578 8.75467 38.5578 9.4864ZM43.8167 19.6H40.8571V6.272H43.8167V19.6ZM51.1863 10.78C51.1863 11.8253 50.9773 12.7073 50.5591 13.426C50.1541 14.1447 49.6249 14.6869 48.9715 15.0528C48.3313 15.4187 47.6387 15.6016 46.8939 15.6016C46.1099 15.6016 45.4305 15.4056 44.8555 15.0136C44.2937 14.6085 43.8625 14.0467 43.5619 13.328C43.2614 12.5963 43.1111 11.7469 43.1111 10.78C43.1111 9.8 43.2614 8.95067 43.5619 8.232C43.8625 7.51333 44.2937 6.958 44.8555 6.566C45.4305 6.16093 46.1099 5.9584 46.8939 5.9584C47.6387 5.9584 48.3313 6.14133 48.9715 6.5072C49.6249 6.87307 50.1541 7.41533 50.5591 8.134C50.9773 8.8396 51.1863 9.7216 51.1863 10.78ZM48.0699 10.78C48.0699 10.3096 47.9719 9.91107 47.7759 9.5844C47.5799 9.25773 47.3186 9.00947 46.9919 8.8396C46.6653 8.66973 46.3059 8.5848 45.9139 8.5848C45.5742 8.5848 45.241 8.66973 44.9143 8.8396C44.6007 8.9964 44.3394 9.23813 44.1303 9.5648C43.9213 9.89147 43.8167 10.2965 43.8167 10.78C43.8167 11.2635 43.9213 11.6685 44.1303 11.9952C44.3394 12.3219 44.6007 12.5701 44.9143 12.74C45.241 12.8968 45.5742 12.9752 45.9139 12.9752C46.3059 12.9752 46.6653 12.8903 46.9919 12.7204C47.3186 12.5505 47.5799 12.3023 47.7759 11.9756C47.9719 11.6489 48.0699 11.2504 48.0699 10.78ZM53.2676 1.568H56.6976V15.288H53.2676V1.568ZM61.3624 1.568H65.2432L59.6768 7.9968L65.5372 15.288H61.5192L55.7372 8.0948L61.3624 1.568ZM66.5019 2.8812C66.5019 2.4108 66.6717 2.03187 67.0115 1.7444C67.3512 1.44387 67.7563 1.2936 68.2267 1.2936C68.7101 1.2936 69.1152 1.44387 69.4419 1.7444C69.7816 2.03187 69.9515 2.4108 69.9515 2.8812C69.9515 3.3516 69.7816 3.73707 69.4419 4.0376C69.1152 4.33813 68.7101 4.4884 68.2267 4.4884C67.7563 4.4884 67.3512 4.33813 67.0115 4.0376C66.6717 3.73707 66.5019 3.3516 66.5019 2.8812ZM66.7959 6.272H69.6575V15.288H66.7959V6.272ZM71.0367 6.272H77.0735V8.722H71.0367V6.272ZM72.6243 3.136H75.4663V15.288H72.6243V3.136ZM91.1103 10.0744V8.1144H97.7155C97.7416 9.12053 97.611 10.0744 97.3235 10.976C97.036 11.8645 96.6048 12.6551 96.0299 13.3476C95.455 14.0401 94.7363 14.5889 93.8739 14.994C93.0246 15.386 92.0576 15.582 90.9731 15.582C89.9408 15.582 88.987 15.4121 88.1115 15.0724C87.236 14.7196 86.4716 14.2231 85.8183 13.5828C85.178 12.9425 84.6815 12.1847 84.3287 11.3092C83.9759 10.4337 83.7995 9.47333 83.7995 8.428C83.7995 7.38267 83.9759 6.4288 84.3287 5.5664C84.6946 4.69093 85.1976 3.9396 85.8379 3.3124C86.4912 2.67213 87.2556 2.18213 88.1311 1.8424C89.0196 1.50267 89.98 1.3328 91.0123 1.3328C91.9139 1.3328 92.7306 1.45693 93.4623 1.7052C94.194 1.9404 94.8474 2.28667 95.4223 2.744C96.0103 3.18827 96.5068 3.73053 96.9119 4.3708L95.0303 5.6252C94.6514 4.97187 94.1222 4.4492 93.4427 4.0572C92.7763 3.6652 91.9662 3.4692 91.0123 3.4692C90.1238 3.4692 89.3202 3.67827 88.6015 4.0964C87.8828 4.50147 87.3079 5.0764 86.8767 5.8212C86.4455 6.55293 86.2299 7.42187 86.2299 8.428C86.2299 9.42107 86.439 10.2965 86.8571 11.0544C87.2883 11.7992 87.8632 12.3807 88.5819 12.7988C89.3006 13.2169 90.1107 13.426 91.0123 13.426C91.6264 13.426 92.1752 13.3411 92.6587 13.1712C93.1422 13.0013 93.5603 12.7596 93.9131 12.446C94.2659 12.1324 94.5599 11.7731 94.7951 11.368C95.0303 10.9629 95.2067 10.5317 95.3243 10.0744H91.1103ZM102.087 11.76C102.087 12.4003 102.224 12.8968 102.498 13.2496C102.773 13.6024 103.191 13.7788 103.753 13.7788C104.158 13.7788 104.51 13.7004 104.811 13.5436C105.112 13.3737 105.347 13.1385 105.517 12.838C105.686 12.5244 105.771 12.1651 105.771 11.76V6.272H107.888V15.288H105.771V13.8964C105.484 14.4191 105.112 14.8176 104.654 15.092C104.21 15.3533 103.674 15.484 103.047 15.484C102.041 15.484 101.263 15.1704 100.715 14.5432C100.179 13.916 99.911 13.0667 99.911 11.9952V6.272H102.087V11.76ZM110.513 2.6852C110.513 2.31933 110.644 2.01227 110.905 1.764C111.179 1.51573 111.493 1.3916 111.846 1.3916C112.225 1.3916 112.538 1.51573 112.787 1.764C113.048 2.01227 113.179 2.31933 113.179 2.6852C113.179 3.038 113.048 3.34507 112.787 3.6064C112.538 3.85467 112.225 3.9788 111.846 3.9788C111.493 3.9788 111.179 3.85467 110.905 3.6064C110.644 3.34507 110.513 3.038 110.513 2.6852ZM110.807 6.272H112.885V15.288H110.807V6.272ZM122.579 -7.98225e-07H124.716V15.288H122.579V-7.98225e-07ZM115.112 10.78C115.112 9.78693 115.314 8.94413 115.719 8.2516C116.124 7.546 116.66 7.01027 117.327 6.6444C118.006 6.26547 118.731 6.076 119.502 6.076C120.26 6.076 120.92 6.26547 121.482 6.6444C122.057 7.02333 122.507 7.5656 122.834 8.2712C123.174 8.96373 123.344 9.8 123.344 10.78C123.344 11.7469 123.174 12.5832 122.834 13.2888C122.507 13.9944 122.057 14.5367 121.482 14.9156C120.92 15.2945 120.26 15.484 119.502 15.484C118.731 15.484 118.006 15.3011 117.327 14.9352C116.66 14.5563 116.124 14.014 115.719 13.3084C115.314 12.6028 115.112 11.76 115.112 10.78ZM117.307 10.78C117.307 11.3811 117.431 11.8972 117.679 12.3284C117.928 12.7596 118.254 13.0863 118.659 13.3084C119.077 13.5305 119.528 13.6416 120.012 13.6416C120.417 13.6416 120.815 13.5305 121.207 13.3084C121.612 13.0863 121.939 12.7661 122.187 12.348C122.449 11.9168 122.579 11.3941 122.579 10.78C122.579 10.1659 122.449 9.64973 122.187 9.2316C121.939 8.8004 121.612 8.47373 121.207 8.2516C120.815 8.02947 120.417 7.9184 120.012 7.9184C119.528 7.9184 119.077 8.02947 118.659 8.2516C118.254 8.47373 117.928 8.8004 117.679 9.2316C117.431 9.6628 117.307 10.1789 117.307 10.78ZM131.26 15.484C130.345 15.484 129.535 15.288 128.829 14.896C128.137 14.504 127.601 13.9552 127.222 13.2496C126.843 12.544 126.654 11.7208 126.654 10.78C126.654 9.82613 126.843 8.9964 127.222 8.2908C127.614 7.5852 128.163 7.04293 128.868 6.664C129.574 6.272 130.404 6.076 131.358 6.076C132.311 6.076 133.122 6.25893 133.788 6.6248C134.454 6.99067 134.964 7.51987 135.317 8.2124C135.683 8.89187 135.866 9.71507 135.866 10.682C135.866 10.7865 135.859 10.8976 135.846 11.0152C135.846 11.1328 135.839 11.2177 135.826 11.27H127.908V9.8196H134.023L133.376 10.7212C133.416 10.6428 133.455 10.5383 133.494 10.4076C133.546 10.2639 133.572 10.1463 133.572 10.0548C133.572 9.57133 133.474 9.1532 133.278 8.8004C133.095 8.4476 132.834 8.1732 132.494 7.9772C132.168 7.7812 131.782 7.6832 131.338 7.6832C130.802 7.6832 130.345 7.8008 129.966 8.036C129.587 8.2712 129.3 8.61093 129.104 9.0552C128.908 9.49947 128.803 10.0483 128.79 10.7016C128.79 11.3549 128.888 11.9103 129.084 12.3676C129.28 12.8119 129.567 13.1516 129.946 13.3868C130.338 13.622 130.809 13.7396 131.358 13.7396C131.932 13.7396 132.436 13.622 132.867 13.3868C133.298 13.1516 133.657 12.7923 133.945 12.3088L135.768 13.0536C135.297 13.8637 134.69 14.4713 133.945 14.8764C133.2 15.2815 132.305 15.484 131.26 15.484Z" fill="black"/>
</svg>
